<svg width="220" height="346.55978" xmlns="http://www.w3.org/2000/svg">

 <g>
  <title>background</title>
  <rect fill="none" id="canvas_background" height="348.55978" width="222" y="-1" x="-1"/>
 </g>
 <g>
  <title>Layer 1</title>
  <path id="svg_1" fill="#fff" d="m151.08007,369.55978l-3.66992,0c-0.52,-0.66 -1.02,-1.33 -1.51026,-2a81.26322,81.26322 0 0 1 -14.3999,-33.09a79.4038,79.4038 0 0 1 6.84033,-49.37a81.55406,81.55406 0 0 1 7.38965,-12.24c1,0.21 1.99024,0.45 2.97022,0.75a78.05127,78.05127 0 0 0 -14.56006,33.39a77.43711,77.43711 0 0 0 15.31982,60.56c0.53027,0.67999 1.07031,1.34998 1.62012,2z"/>
  <ellipse id="svg_2" fill="#f74ea1" ry="6" rx="35" cy="367.55978" cx="113.8501"/>
  <path id="svg_3" fill="#f74ea1" d="m80.83494,107.26526a47.63856,47.63856 0 0 1 37.62769,-46.56726a47.62759,47.62759 0 1 0 0,93.13458a47.63858,47.63858 0 0 1 -37.62769,-46.56732z"/>
  <path id="svg_4" fill="#f74ea1" d="m29.00096,107.26526a106.47621,106.47621 0 0 1 93.46167,-105.67026a106.50239,106.50239 0 0 0 -119.46167,105.67026c0,47.75561 70.231,182.42474 96.60852,231.31982a11.19028,11.19028 0 0 0 19.70617,0c0.98731,-1.82995 2.04285,-3.794 3.147,-5.85522c-28.39626,-53.01245 -93.46169,-179.49634 -93.46169,-225.4646z"/>
  <path id="svg_5" fill="#3f3d56" d="m109.55345,345.667a12.02658,12.02658 0 0 1 -10.73242,-6.41113c-29.08399,-53.91114 -96.72852,-184.41847 -96.72852,-231.79396a107.46191,107.46191 0 0 1 214.92383,0c0,47.37989 -67.64551,177.88379 -96.72949,231.794a12.027,12.027 0 0 1 -10.7334,6.41109zm0.001,-343.667a105.58109,105.58109 0 0 0 -105.46194,105.46191c0,46.91993 67.47754,177.06641 96.48828,230.84473a10.19063,10.19063 0 0 0 17.94629,0c29.01172,-53.77637 96.48926,-183.92041 96.48926,-230.84473a105.5811,105.5811 0 0 0 -105.46192,-105.46191l0.00003,0z"/>
  <path id="svg_6" fill="#3f3d56" d="m109.55442,156.08936a48.62769,48.62769 0 1 1 48.627,-48.62745a48.68267,48.68267 0 0 1 -48.627,48.62745zm0,-95.25538a46.62769,46.62769 0 1 0 46.627,46.62793a46.68048,46.68048 0 0 0 -46.627,-46.62791l0,-0.00002z"/>
 </g>
</svg>